<?xml version="1.0" encoding="UTF-8"?>
<svg id="Livello_1" data-name="Livello 1" xmlns="http://www.w3.org/2000/svg" width="57.7766" height="51.854" viewBox="0 0 57.7766 51.854">
  <g>
    <path d="M15.1954,9.6473c-.6954.0262-1.2526.2027-1.6144.3499,1.3698.5331,2.3584,1.1579,3.0106,1.6329.7547.5496.8579.752,1.5271,1.1663,1.2973.8032,2.5216,1.0409,3.0542,1.1197,1.6383.2424,2.8676-.11,3.9486-.4199,1.5537-.4454,2.1662-.9705,2.4215-1.213.4385-.4165.7211-.8524.8944-1.1663-1.0169.5906-2.549,1.2513-4.4068,1.2596-1.1145.005-2.0478-.2261-2.4433-.3266-1.3628-.3461-2.4017-.8982-2.5961-1.003-1.0432-.5624-1.1795-.8541-2.0725-1.143-.8496-.2749-1.5103-.2646-1.7234-.2566Z"/>
    <path d="M21.1074,9.8806s1.561.6606,3.4032.3032c.4792-.093.8494-.2498,1.2162-.4053.3579-.1517.8067-.3454.7854-.5074-.0097-.0734-.1115-.106-.3272-.1837-.4698-.1691-.7956-.2864-1.0308-.4111-.2191-.1162-.3915-.2699-.7363-.5773-.3172-.2828-.4171-.4198-.6708-.5161-.0973-.0369-.3126-.1157-.5727-.07-.4419.0777-.7894.4757-.9163.6211-.1238.1418-.2204.2865-.4172.3499-.0496.016-.2099.0676-.3354-.0087-.1897-.1155-.1941-.4591-.1963-.6036-.0209-1.3435-.0357-2.0215-.2454-2.3298-.3502-.5146-1.0913-.4713-1.1562-.4665-.6607.0485-1.1334.583-1.3308,1.073-.242.6007-.0863,1.1742-.0218,1.3996.4078,1.4251,1.9054,2.0589,2.5524,2.3327Z"/>
    <path d="M57.6322,16.9661c-.2665-1.7293-.5072-3.2906-1.6634-4.3388-.3311-.3002-1.0641-.9646-1.7889-.8398-.0223.0038-.4304.0749-.9708.1633-.3526.0577-.4733.0756-.6436.035-.2833-.0675-.3526-.2132-.6654-.3616-.2533-.1201-.459-.1437-.7308-.1749-.9729-.1117-2.1529.2815-2.3561.3499-.5046.1699-1.2156.4622-2.007.9797-.6763-.3888-1.3526-.7776-2.0289-1.1663-.0117-.4114-.058-.9985-.2182-1.6795-.24-1.0203-.5534-2.3525-1.6798-3.2657-.2189-.1775-1.4525-1.1368-3.076-.7931-1.1073.2344-1.7992.9485-2.0507,1.2363-.3628-.37-.9118-.9719-1.4835-1.7962-.9454-1.3632-.9993-1.9599-1.8543-3.0325-.5126-.6431-1.1107-1.3933-2.1161-1.8661-1.5065-.7085-2.9616-.3401-3.7523-.14-1.4462.3661-2.4921,1.123-3.1196,1.6795-.7978-.5583-2.6718-1.6936-5.1921-1.6329-.908.0219-2.8273.0681-4.5158,1.5396-.8489.7397-1.3415,1.5801-1.6144,2.146-.4826-.0776-1.2086-.1443-2.0725-.0233-1.51.2116-4.357,1.1251-5.1049,3.2191-.191.5348-.3278,1.3782-1.0253,2.356-.2258.3165-.4419.5512-.589.6998-1.2899,1.2832-3.1242,3.5166-4.0577,6.7881-.2233.7826-.3679,1.5292-.4581,2.2219.0097-.0216.0853-.1826.2618-.2274.2001-.0509.3488.0937.36.105-.4662.8514-1.0651,2.1986-1.3089,3.9539-.4209,3.0292.4721,5.4281.9163,6.4382.014-.2215.0581-.5461.1963-.9097.1398-.3676.3225-.6351.4581-.8048.3694,2.4947,1.6703,9.1254,6.9374,14.9407,4.1796,4.6146,8.8226,6.47,11.126,7.2079-3.228-1.7505-5.6457-3.7018-7.3137-5.2485-1.7516-1.6243-4.1722-3.9068-6.2611-7.6978,0,0-2.0366-3.6961-2.836-8.3509-.1735-1.0105-.1998-1.8538-.1091-2.6826.1066-.974.3548-1.7455.5454-2.2394-.3986.2907-.8495.6655-1.3089,1.143-.3656.38-.6682.754-.9163,1.0964-.0736-1.5463.1044-2.8018.2836-3.6623.3054-1.4659.6675-3.2043,2.0507-4.3621.3968-.3321.7779-.533,1.0471-.6531-.224-.0346-.5334-.056-.8944,0-.4638.0719-.8212.2417-1.0471.3732-.0037-.1749.0011-.4263.0436-.7231.086-.6002.3112-1.283.9599-2.216.2584-.3717,1.2385-1.7814,2.487-2.6826.1737-.1254.5859-.4093.8508-.9564.161-.3325.1798-.5809.24-.8631.1703-.7986.5613-1.3499.8944-1.8195.6848-.9653,1.509-1.4365,2.0289-1.7262,1.0886-.6066,2.1165-.7882,2.8142-.8398-.1971,1.0766.0432,1.7542.1963,2.0761.1728.3632.5065.8449.6108.7931.0599-.0297.0329-.2298,0-.3966.1229-.4513.3235-1.0742.6545-1.7728.4839-1.0215,1.1011-2.3243,2.4434-3.2191,1.4418-.9611,2.916-.9154,3.5559-.8864.4209.019,1.5132.0805,2.6833.7231.7086.3892.6919.5775,2.0725,1.5862,1.1049.8073,1.6683,1.2115,2.2034,1.2363.742.0344,1.4872-.3258,2.1161-.6298.3529-.1706.6346-.3407.829-.4665-.4238.0185-1.2359-.0068-2.1379-.4432-.802-.388-1.3197-.9289-1.5925-1.2596.2717-.2777,1.2891-1.2499,2.8142-1.283,1.582-.0342,2.6493.9651,2.9887,1.283.813.7613.7947,1.2586,1.7234,2.7759.4874.7964,1.2401,1.9408,2.4433,3.1258.9623.9477,1.9346,1.634,2.5361,2.0586.6318.446.9477.669,1.3035.8573,1.3528.7159,2.13.5818,3.8614,1.3296.4734.2045.8578.388,1.1126.5132-.0641.4104-.1986.9939-.5018,1.6329-.3039.6404-.6657,1.1017-.9381,1.3996.1522-.0448.3744-.1179.6327-.2333.7816-.349,1.1516-.7528,1.8107-1.3063.651-.5467,1.3425-1.1194,2.3125-1.5396,0,0,.591-.256,1.3962-.3499.5272-.0615.7877-.0106,1.0035.0933.1741.0838.1882.139.3709.2099.2461.0956.4154.0711.8944.0467.2869-.0146.5867-.0299.9163-.0233.4169.0084.6254.0125.7854.07.5174.1858.7833.7127.8944.9331.338.6699.3163,1.3569.3054,1.7028-.0234.7432-.2207,1.0648,0,1.5396.1061.2283.1867.2291.3272.5365.0755.1652.2507.5598.2182,1.0497-.0332.4984-.2641.836-.4581,1.1197-.1438.2103-.4548.6532-1.0253.9097-.1022.046-.3912.1662-.8072.1866-.8476.0416-1.2113-.3807-2.0507-.6298-.7746-.2299-1.4181-.1531-1.9198-.0933-.7806.0931-1.3664.3327-2.3779.7465-.9493.3883-.8276.4288-1.2435.5365-.6768.1753-1.0708.0867-2.5306,0-.3665-.0218-.9325-.0512-1.6362-.07v-2.5893c-.0377.1623-.3049,1.2395-1.2435,1.6795-.6094.2857-1.1809.1524-1.418.0933-.9226-.2297-1.3148-.8842-1.9416-1.4462-1.0307-.9242-2.1668-1.124-3.4687-1.3529-1.3192-.232-1.433.0747-4.4068.1866-1.7405.0655-2.6108.0983-3.6214-.0933-1.648-.3124-2.8319-.9597-3.6214-1.3996-2.2205-1.2373-2.2313-1.9438-4.0359-3.0558-1.2255-.7552-3.2214-1.985-5.6502-1.6095-3.193.4936-4.9348,3.4217-5.1267,3.7556-1.3312,2.3168-1.1207,4.6987-.9381,6.7647.1746,1.975.6857,3.3224.829,3.6856.5898,1.4952,1.3594,2.571,1.9198,3.2424-.6594-.5544-1.4689-1.3644-2.2034-2.496-.3679-.5668-.6521-1.1143-.8726-1.6095.2881,2.3324.9268,4.0798,1.418,5.1785.7391,1.653,1.4707,2.568,1.6798,2.8225.6117.7446,1.2185,1.2761,1.6798,1.6329-.5217-.1702-1.2252-.4676-1.9634-1.003-.5429-.3938-.9591-.8109-1.2653-1.1663,1.4692,2.7253,3.2042,4.3253,4.2977,5.1785,2.2275,1.738,4.3519,2.3736,6.6319,3.0558,2.3956.7168,4.4575.9988,5.912,1.1197-.4169.1062-1.0252.2402-1.7671.3266-2.5367.2954-4.5169-.2117-5.6502-.5132-1.064-.2831-2.5189-.7768-4.145-1.6795.4097.7072,1.0426,1.7014,1.9416,2.7759,1.8756,2.2418,3.7581,3.4575,5.2576,4.4087,1.3357.8473,3.2455,1.8984,5.6939,2.7525,3.3796.2926,6.7592.5851,10.1388.8777-.1906-3.9601-1.052-6.8366-1.8254-8.7594-1.6085-3.9992-2.4931-5.5697-2.4932-5.5698-1.1001-1.9531-2.1403-3.3193-1.959-5.189.0928-.9573.4725-1.7026.7637-2.1669-.4442-.0569-1.0573-.1188-1.7889-.14-.5229-.0151-1.8659-.0313-3.7959.2799-2.0702.3338-2.3205.6419-4.0577.8398-1.0834.1234-1.9737.1161-2.5361.0933.7605.5343,1.4098.8715,1.8761,1.0847.4934.2256,1.0368.4289,1.5925.9797.2164.2144.3708.4183.469.5598-.3431-.0731-.843-.1869-1.4398-.3499-1.6051-.4384-4.6121-1.2875-7.69-3.499-1.6613-1.1936-4.1097-2.9527-5.0067-5.6684-.1897-.5744-.6439-1.9494-.36-3.6739.1106-.6716.3022-1.2083.4581-1.5746-.0757.5637-.135,1.4491.0654,2.4843.4728,2.442,2.0404,3.9082,2.9124,4.7236.6726.6291,1.9449,1.7923,3.8941,2.3093,1.2736.3378,2.387.2135,4.614-.035,2.4823-.277,2.5653-.5693,4.4831-.6998,1.8223-.124,3.2299.0389,4.6467.2099,1.6333.1972,2.5168.4185,4.9412.9447,4.1111.8924,6.1666,1.3385,7.0683,1.3996,2.0843.1412,4.4985-.0031,7.0355-.8573,2.8784-.9691,3.8027-2.1409,4.1395-2.6242.7301-1.0476.991-2.1475,1.0962-2.8692.3187.0344.8519.0495,1.4562-.1575,1.2745-.4365,1.9345-1.5424,2.2252-2.0294.1133-.1899.4696-.8122.6872-1.732.0598-.2528.2925-1.3036,0-3.2016ZM43.163,11.0236c-.7752-.2827-1.6591-.6716-2.5961-1.213-.6496-.3753-1.2235-.7655-1.7234-1.143.1457-.167.7066-.7697,1.6144-.8631.1956-.0201.85-.0774,1.4835.3499.6877.4639.9157,1.2053,1.0471,1.6329.1555.5056.1787.9489.1745,1.2363ZM51.2512,23.5675c-.2171.1338-.902.546-1.9852.9797-1.6013.6411-3.2606,1.0036-3.9486,1.143-.3601.6466-.7241,1.1333-1.0035,1.4696-.3018.3632-.5754.6879-1.0253,1.003-.34.2382-.6525.3811-.8726.4665.0348-.5606.0577-1.1442.0654-1.7495.004-.3091.0038-.6124,0-.9097-.2066-.0126-.5086-.0339-.8726-.07-.5887-.0584-1.399-.1616-1.8325-.2566-.5105-.1119-1.4494-.4209-2.607-1.4463-.0733-.0081-.1799-.0091-.2945.035-.2475.0952-.3716.3389-.4254.4374,0,0-.3139.5743-.949,1.0497-.2536.1898-.6721.3591-1.3907.2449.0215-.1578.0573-.3954.1145-.6823.0909-.4552.143-.5697.2127-.9622.1298-.7314.0548-.9311.0164-1.0147-.0993-.2159-.264-.3308-.3436-.3849-1.0629-.722-2.6179-.4724-2.6179-.4724-2.2373.3591-5.2829.2111-7.3137-.2274-.7487-.1617-2.14-.4732-3.6814-1.3471-.5387-.3055-1.4055-.8552-2.1597-1.3646-1.1617-.7846-1.2763-.9465-1.8325-1.2072-1.2531-.5873-2.3835-.568-2.6342-.5598-1.575.0513-2.7246.781-3.2396,1.1605.1336-.4695.458-1.3784,1.2435-2.1927.2701-.28,1.174-1.217,2.487-1.3296.5891-.0505,1.145.0748,2.487.7698,1.5127.7834,2.3456,1.4213,4.2322,2.7059,2.3758,1.6176,2.8259,1.8119,3.316,1.9594.7649.2303,1.6298.2391,3.3596.2566,1.6997.0172,2.3758-.0864,4.5377-.0467,1.3204.0243,1.7732.076,2.3125.2333,1.1039.322,1.6234.8108,2.487,1.3529,1.9591,1.23,3.8289,1.5671,4.6249,1.7028,1.4524.2477,2.7908.4759,4.2977-.07.6514-.236,1.1894-.5641,2.3997-.8864.9362-.2493,1.6254-.3223,1.9634-.3499.6743-.0551,1.2546-.0366,1.7016,0-.2.1476-.4814.3457-.829.5598Z"/>
  </g>
  <path d="M49.8059,18.4765c.4404-.0257.6465-.245,1.1617-.4024.2471-.0755.6145-.1517,1.0962-.1225.0196-.1246.0339-.3236-.0327-.5423-.1712-.5618-.7319-.7794-.9326-.8573-.3901-.1514-.7157-.1162-.9817-.0875-.3853.0416-.5483.152-.6217.2099-.0545.043-.1537.1311-.2618.3149-.2703.4595-.2967,1.0073-.2945,1.2771.198.1066.5023.2312.8672.2099Z"/>
</svg>